<svg width="40" height="40" viewBox="0 0 40 40" fill="none" xmlns="http://www.w3.org/2000/svg">
<circle cx="20" cy="20" r="20" fill="white" fill-opacity="0.5"/>
<g clip-path="url(#clip0_536_6230)">
<path d="M21.2894 20.0116L26.7452 14.5556C27.1002 14.2007 27.1002 13.6269 26.7452 13.272C26.3903 12.9171 25.8165 12.9171 25.4616 13.272L20.0057 18.728L14.5499 13.272C14.1948 12.9171 13.6212 12.9171 13.2663 13.272C12.9112 13.6269 12.9112 14.2007 13.2663 14.5556L18.7221 20.0116L13.2663 25.4675C12.9112 25.8224 12.9112 26.3962 13.2663 26.7511C13.4432 26.9281 13.6757 27.017 13.9081 27.017C14.1405 27.017 14.3728 26.9281 14.5499 26.7511L20.0057 21.2951L25.4616 26.7511C25.6386 26.9281 25.871 27.017 26.1034 27.017C26.3358 27.017 26.5682 26.9281 26.7452 26.7511C27.1002 26.3962 27.1002 25.8224 26.7452 25.4675L21.2894 20.0116Z" fill="#F73D17"/>
</g>
<defs>
<clipPath id="clip0_536_6230">
<rect width="14.0115" height="14" fill="white" transform="translate(13 13)"/>
</clipPath>
</defs>
</svg>
