<svg width="50" height="50" viewBox="0 0 50 50" fill="none" xmlns="http://www.w3.org/2000/svg">
<rect width="50" height="50" rx="10" fill="#F73D17"/>
<path d="M34 18.98C30.67 18.65 27.32 18.48 23.98 18.48C22 18.48 20.02 18.58 18.04 18.78L16 18.98" stroke="#FAFAFA" stroke-width="1.5" stroke-linecap="round" stroke-linejoin="round"/>
<path d="M21.5 17.97L21.72 16.66C21.88 15.71 22 15 23.69 15H26.31C28 15 28.13 15.75 28.28 16.67L28.5 17.97" stroke="#FAFAFA" stroke-width="1.5" stroke-linecap="round" stroke-linejoin="round"/>
<path d="M31.8499 22.1399L31.1999 32.2099C31.0899 33.7799 30.9999 34.9999 28.2099 34.9999H21.7899C18.9999 34.9999 18.9099 33.7799 18.7999 32.2099L18.1499 22.1399" stroke="#FAFAFA" stroke-width="1.5" stroke-linecap="round" stroke-linejoin="round"/>
<path d="M23.3301 29.5H26.6601" stroke="#FAFAFA" stroke-width="1.5" stroke-linecap="round" stroke-linejoin="round"/>
<path d="M22.5 25.5H27.5" stroke="#FAFAFA" stroke-width="1.5" stroke-linecap="round" stroke-linejoin="round"/>
</svg>
