<?xml version="1.0" encoding="UTF-8" standalone="no"?> <svg id="Layer_1" data-name="Layer 1" xmlns="http://www.w3.org/2000/svg" viewBox="0 0 128 128"><defs><style>.cls-1{fill:#2e79bd;}.cls-2{fill:#2d3e50;}</style></defs><title>x</title><path class="cls-1" d="M89.7558,26.74838a31.61,31.61,0,1,0,31.6,31.61A31.60712,31.60712,0,0,0,89.7558,26.74838Zm17.74005,38.17a.97766.97766,0,0,1-.96.9801h-4.02l-4.08-3.2301v2.89a2.4796,2.4796,0,0,1-2.48,2.48h-21.47a2.4796,2.4796,0,0,1-2.48-2.48V51.15848a2.47962,2.47962,0,0,1,2.48-2.4801h21.47a2.47962,2.47962,0,0,1,2.48,2.4801v2.86987l4.09-3.21h4.01a.96667.96667,0,0,1,.96.96Z"/><path class="cls-2" d="M81.22412,100.705a5.63364,5.63364,0,0,1-5.59,5.6h-54.87a5.63379,5.63379,0,0,1-5.59-5.6v-84.7a5.634,5.634,0,0,1,5.59-5.59h54.87a5.63391,5.63391,0,0,1,5.59,5.59v7.19a35.769,35.769,0,0,1,8.53-1.02v-6.17a13.62629,13.62629,0,0,0-4.15-9.97,13.62619,13.62619,0,0,0-9.97-4.15h-54.87a13.62643,13.62643,0,0,0-9.97,4.15,13.62623,13.62623,0,0,0-4.15,9.97v95.99994a13.62631,13.62631,0,0,0,4.15,9.97009,13.617,13.617,0,0,0,9.97,4.14h54.87a14.15215,14.15215,0,0,0,14.12-14.11011v-17.47a35.76593,35.76593,0,0,1-8.53-1.02Zm-29.05,19.83a5.5657,5.5657,0,1,1,1.67-3.98A5.47369,5.47369,0,0,1,52.17413,120.53494Z"/></svg>