<svg width="20" height="24" viewBox="0 0 20 24" fill="none" xmlns="http://www.w3.org/2000/svg">
<path fill-rule="evenodd" clip-rule="evenodd" d="M0.00140143 11.6074C0.00140143 8.68998 -0.00150857 5.77253 0.00271143 2.85514C0.00472143 1.49184 0.862971 0.393383 2.16212 0.0765032C2.91712 -0.107647 3.61054 0.0515932 4.27523 0.436703C6.94972 1.98643 9.62939 3.52723 12.3069 5.07163C14.3414 6.24517 16.377 7.4165 18.4089 8.59434C19.2083 9.05772 19.709 9.74941 19.8767 10.6569C20.1104 11.9222 19.5906 13.0944 18.4892 13.7933C16.3818 15.1305 14.2683 16.4582 12.1571 17.7893C9.53451 19.4427 6.91462 21.1003 4.28768 22.7468C2.84971 23.6482 1.0449 23.1596 0.298131 21.6837C0.0874814 21.2674 -0.000408573 20.8253 1.42737e-06 20.3596C0.00270143 17.4422 0.00138143 14.5248 0.00138143 11.6074" fill="#C8C8C8"/>
</svg>
