<svg width="24" height="25" viewBox="0 0 24 25" fill="none" xmlns="http://www.w3.org/2000/svg">
<mask id="mask0_0_53" style="mask-type:luminance" maskUnits="userSpaceOnUse" x="0" y="0" width="24" height="25">
<path fill-rule="evenodd" clip-rule="evenodd" d="M0.452026 0.900024H23.6617V24.1H0.452026V0.900024Z" fill="white"/>
</mask>
<g mask="url(#mask0_0_53)">
<path fill-rule="evenodd" clip-rule="evenodd" d="M20.8846 0.900044C21.0511 0.941504 21.2188 0.978424 21.3839 1.02502C22.7014 1.39719 23.622 2.55467 23.6415 3.92041C23.6623 5.38396 23.6519 6.84806 23.6449 8.31192C23.6421 8.90851 23.2368 9.31191 22.6558 9.32977C22.0195 9.34938 21.6082 9.00154 21.5482 8.39012C21.5386 8.29274 21.5382 8.19426 21.5382 8.09627C21.5375 6.82107 21.538 5.54581 21.5377 4.27061C21.5374 3.34978 21.2006 3.01006 20.2872 3.00975C18.9667 3.00927 17.6462 3.01368 16.3257 3.00787C15.5755 3.00454 15.1555 2.5451 15.2231 1.81165C15.2691 1.31135 15.5782 1.03663 16.0369 0.900024L20.8846 0.900044Z" fill="black"/>
<path fill-rule="evenodd" clip-rule="evenodd" d="M0.452026 16.4851C0.735706 15.7871 1.21888 15.5196 1.8573 15.7134C2.2492 15.8324 2.4755 16.1028 2.53815 16.5049C2.55891 16.6382 2.56139 16.7754 2.56157 16.9109C2.56326 18.2313 2.56018 19.5518 2.56393 20.8722C2.56562 21.4578 2.82364 21.8325 3.30633 21.9463C3.45837 21.9821 3.62058 21.9849 3.77818 21.9852C5.08352 21.9881 6.38886 21.9853 7.69414 21.9888C7.85138 21.9892 8.01389 21.9963 8.16478 22.0355C8.67119 22.1673 8.94622 22.6354 8.87565 23.2174C8.81276 23.7357 8.41675 24.0897 7.86355 24.0935C6.762 24.101 5.66032 24.1036 4.55883 24.0932C4.01713 24.0882 3.46363 24.1138 2.93676 24.0138C1.61048 23.762 0.713246 22.7792 0.491006 21.435C0.485136 21.3998 0.465346 21.3668 0.452026 21.3328V16.4851" fill="black"/>
<path fill-rule="evenodd" clip-rule="evenodd" d="M8.06327 0.900024C8.76136 1.1814 9.02828 1.66421 8.83472 2.30571C8.71906 2.68895 8.45505 2.91392 8.06418 2.98311C7.93145 3.00659 7.79363 3.00835 7.65812 3.00853C6.3368 3.01035 5.01542 3.00726 3.69404 3.01089C3.09823 3.01252 2.72824 3.25844 2.60683 3.73786C2.56858 3.88905 2.5647 4.05174 2.56434 4.20923C2.56113 5.51548 2.56422 6.82179 2.56028 8.12804C2.5598 8.29273 2.55048 8.46286 2.50908 8.62096C2.39814 9.04421 2.04243 9.30919 1.59207 9.3291C1.0655 9.35234 0.689276 9.13009 0.525016 8.69897C0.501106 8.63627 0.476356 8.57387 0.452026 8.51128V3.66366C0.466186 3.62208 0.486766 3.58153 0.493606 3.5388C0.700296 2.24326 1.61399 1.26809 2.89125 0.980594C2.99989 0.956144 3.10751 0.927034 3.2156 0.900034L8.06327 0.900024Z" fill="black"/>
<path fill-rule="evenodd" clip-rule="evenodd" d="M4.66786 8.27592C4.66786 7.59696 4.66617 6.91793 4.66835 6.23896C4.67065 5.51369 5.06327 5.11786 5.78896 5.11628C7.15452 5.11338 8.52003 5.11308 9.88559 5.11646C10.5964 5.11821 10.9957 5.51429 10.9982 6.22582C11.003 7.59889 11.0034 8.97202 10.9979 10.3451C10.9952 11.0423 10.5962 11.4431 9.89883 11.4463C8.5182 11.4525 7.13756 11.453 5.75692 11.4459C5.06258 11.4423 4.67117 11.0346 4.66844 10.3356C4.66572 9.64905 4.66784 8.96246 4.66784 8.27592M6.7993 9.31865H8.87161V7.24392H6.7993V9.31865Z" fill="black"/>
<path fill-rule="evenodd" clip-rule="evenodd" d="M16.2738 5.11493C16.9527 5.11493 17.6318 5.11245 18.3107 5.11565C19.0357 5.11898 19.4303 5.51361 19.4316 6.23851C19.4338 7.60401 19.4342 8.96957 19.4314 10.3351C19.4299 11.0433 19.0327 11.4436 18.3201 11.4462C16.9546 11.4512 15.589 11.4507 14.2235 11.4464C13.4995 11.4442 13.1032 11.0456 13.1014 10.3219C13.0981 8.96387 13.0984 7.60587 13.1012 6.24788C13.1028 5.50814 13.4959 5.11818 14.2367 5.11545C14.9158 5.11298 15.5947 5.11491 16.2738 5.11491M17.3031 7.24378H15.234V9.32396H17.3031V7.24378Z" fill="black"/>
<path fill-rule="evenodd" clip-rule="evenodd" d="M4.66773 16.7081C4.66773 16.0292 4.66591 15.3501 4.66822 14.6712C4.67064 13.9482 5.06423 13.5518 5.79168 13.5497C7.14962 13.546 8.50768 13.5463 9.86562 13.5496C10.604 13.5514 10.997 13.9461 10.9987 14.6859C11.0017 16.0364 11.0014 17.3869 10.9988 18.7373C10.9974 19.4899 10.6051 19.8798 9.85061 19.8809C8.50768 19.8829 7.16482 19.8827 5.82189 19.8809C5.05262 19.8799 4.66913 19.4933 4.66792 18.7225C4.66689 18.0511 4.66774 17.3796 4.66774 16.7081M8.87603 15.6779H6.79482V17.7463H8.87603V15.6779Z" fill="black"/>
<path fill-rule="evenodd" clip-rule="evenodd" d="M18.4414 24.0961C17.7244 24.0961 17.0073 24.0998 16.2902 24.0952C15.5084 24.0901 15.0444 23.464 15.2598 22.7098C15.3751 22.3058 15.6479 22.074 16.0594 22.0094C16.1854 21.9896 16.3151 21.9877 16.443 21.9876C17.7262 21.986 19.0094 21.9871 20.2925 21.9859C20.4206 21.9858 20.5496 21.9833 20.6767 21.9684C21.1285 21.9155 21.4714 21.5779 21.5185 21.1254C21.541 20.9085 21.5364 20.6883 21.5367 20.4697C21.5382 19.2394 21.5326 18.009 21.5394 16.7787C21.5439 15.9541 22.1586 15.4878 22.9307 15.7088C23.3516 15.8293 23.6382 16.1675 23.6411 16.6245C23.6507 18.1416 23.6872 19.6604 23.6293 21.1753C23.5661 22.831 22.2095 24.0741 20.5473 24.0939C19.8454 24.1023 19.1434 24.0953 18.4414 24.0953V24.0961Z" fill="black"/>
<path fill-rule="evenodd" clip-rule="evenodd" d="M16.7874 19.8811C16.2668 19.8809 15.746 19.8871 15.2255 19.8794C14.4371 19.8679 13.9759 19.2152 14.2155 18.4599C14.3339 18.0867 14.5917 17.8704 14.972 17.7964C15.0531 17.7806 15.1365 17.7683 15.2189 17.7681C16.2677 17.7661 17.3168 17.7541 18.3653 17.7706C19.1412 17.7829 19.5756 18.3733 19.3934 19.1229C19.281 19.5855 18.9152 19.8629 18.3946 19.8803C18.3795 19.8808 18.3645 19.8812 18.3494 19.8812C17.8287 19.8812 17.3081 19.8812 16.7874 19.8811" fill="black"/>
<path fill-rule="evenodd" clip-rule="evenodd" d="M15.2324 15.1481C15.2151 15.4107 15.2218 15.6776 15.1752 15.9349C15.0858 16.4298 14.6803 16.7193 14.134 16.7129C13.6097 16.7067 13.1929 16.4027 13.1411 15.909C13.091 15.4319 13.0851 14.9442 13.1208 14.4658C13.1641 13.8842 13.6021 13.5358 14.1831 13.5505C14.7754 13.5654 15.1733 13.9425 15.2112 14.5365C15.2242 14.7393 15.2133 14.9435 15.2133 15.1471C15.2197 15.1474 15.226 15.1477 15.2324 15.1481" fill="black"/>
<path fill-rule="evenodd" clip-rule="evenodd" d="M17.8486 15.68C17.5785 15.6623 17.3039 15.6697 17.0393 15.6216C16.5574 15.5339 16.2623 15.1228 16.2661 14.5962C16.2699 14.0722 16.5738 13.6435 17.0595 13.5918C17.5438 13.5402 18.0393 13.5331 18.5249 13.5709C19.1136 13.6168 19.4554 14.0644 19.4304 14.662C19.4064 15.237 19.0219 15.6276 18.4376 15.6602C18.2422 15.6711 18.0457 15.6619 17.8496 15.6619L17.8486 15.68Z" fill="black"/>
</g>
</svg>
