<svg width="23" height="23" viewBox="0 0 23 23" fill="none" xmlns="http://www.w3.org/2000/svg">
<path fill-rule="evenodd" clip-rule="evenodd" d="M11.441 22.9285C8.94385 22.9285 6.44671 22.9327 3.94956 22.9271C2.12515 22.923 0.567089 21.7092 0.127289 19.9437C0.0477187 19.6241 0.00703867 19.2863 0.00653867 18.9568C-0.000901328 13.9626 -0.00179133 8.96826 0.00284867 3.97397C0.00494867 1.74795 1.74877 0.00451397 3.97181 0.00279396C8.9661 -0.00101604 13.9605 -0.000826035 18.9547 0.00273396C21.1766 0.00432396 22.9245 1.74789 22.9269 3.97251C22.9324 8.9668 22.9323 13.9611 22.9269 18.9554C22.9246 21.1796 21.1777 22.9229 18.9562 22.9274C16.4512 22.9324 13.9461 22.9285 11.441 22.9285ZM8.60333 11.4619C8.60333 12.6185 8.6081 13.7751 8.60034 14.9316C8.59812 15.2611 8.68938 15.5308 8.99273 15.6833C9.29417 15.8349 9.57032 15.7519 9.83528 15.562C11.4377 14.4134 13.0441 13.2703 14.6477 12.1233C15.1839 11.7397 15.1881 11.201 14.6561 10.8202C13.0465 9.66801 11.4332 8.5209 9.82473 7.36719C9.55742 7.17544 9.28375 7.10318 8.98307 7.25946C8.6897 7.41193 8.59875 7.67193 8.60066 7.99212C8.60752 9.1487 8.60333 10.3053 8.60333 11.4619ZM9.12467 4.29563C9.31445 4.29563 9.50454 4.30179 9.69406 4.29442C10.2831 4.2716 10.7341 3.82443 10.7488 3.25453C10.7636 2.67681 10.3203 2.18598 9.728 2.15534C9.33364 2.13488 8.93642 2.13488 8.54206 2.15547C7.95767 2.18598 7.51939 2.66264 7.52283 3.23235C7.52633 3.81274 7.97992 4.27135 8.57899 4.29461C8.76057 4.30166 8.94272 4.29569 9.12467 4.29563ZM13.8005 18.6346C13.6107 18.6346 13.4206 18.6285 13.2311 18.6358C12.6316 18.6588 12.1817 19.1181 12.181 19.7017C12.1804 20.2824 12.6301 20.7539 13.2266 20.777C13.6058 20.7916 13.9864 20.7927 14.3654 20.7765C14.9583 20.7513 15.4131 20.2687 15.407 19.6943C15.401 19.1164 14.9427 18.6565 14.3462 18.6351C14.1645 18.6286 13.9824 18.6341 13.8006 18.6346M18.4401 4.29569C18.6299 4.29569 18.8199 4.30205 19.0095 4.29455C19.604 4.27091 20.062 3.80543 20.0639 3.22873C20.0659 2.65464 19.6075 2.17537 19.0155 2.153C18.6365 2.1387 18.2558 2.13762 17.8769 2.15325C17.2807 2.17785 16.8372 2.65025 16.8403 3.2347C16.8433 3.82017 17.2904 4.27198 17.8944 4.29461C18.076 4.30141 18.2582 4.29563 18.4401 4.29569ZM9.14666 18.6344C8.95682 18.6344 8.76679 18.6284 8.5772 18.6355C7.97972 18.658 7.52549 19.1186 7.52282 19.699C7.52015 20.2775 7.97177 20.7529 8.56741 20.7768C8.94645 20.7919 9.32715 20.7924 9.70613 20.7768C10.3009 20.7521 10.752 20.2752 10.7488 19.6971C10.7456 19.117 10.2905 18.6574 9.69234 18.6354C9.5107 18.6287 9.32855 18.6343 9.14666 18.6344M18.4476 18.6341C18.2657 18.6341 18.0836 18.6289 17.902 18.635C17.2963 18.6553 16.8463 19.1034 16.8403 19.6874C16.8342 20.2729 17.2731 20.7485 17.8692 20.7759C18.256 20.7936 18.6449 20.7941 19.0315 20.7756C19.6223 20.7474 20.0782 20.2538 20.0638 19.6846C20.0491 19.104 19.5923 18.6539 18.9933 18.6344C18.8116 18.6285 18.6295 18.6335 18.4476 18.634M4.49405 4.29544C4.67594 4.29544 4.85803 4.30154 5.03967 4.29436C5.63995 4.2704 6.08833 3.81299 6.08966 3.22879C6.09099 2.64879 5.64013 2.17511 5.0457 2.15274C4.66659 2.1385 4.28603 2.13793 3.90705 2.15338C3.31344 2.17759 2.86023 2.65788 2.86602 3.23471C2.8718 3.81503 3.32597 4.27238 3.92466 4.29487C4.11418 4.30199 4.30421 4.29595 4.49405 4.29544ZM13.793 4.29505C13.9828 4.29505 14.1729 4.30204 14.3624 4.29378C14.9459 4.26823 15.3965 3.81197 15.407 3.24283C15.4176 2.66931 14.9644 2.18095 14.373 2.15413C13.9862 2.13659 13.5974 2.1364 13.2106 2.15419C12.6165 2.18152 12.1723 2.66314 12.1811 3.2441C12.1897 3.81724 12.6353 4.26867 13.2236 4.29378C13.4131 4.30185 13.6032 4.29499 13.793 4.29505ZM4.47364 20.7927L4.47421 20.7799C4.66405 20.7799 4.85421 20.7878 5.0436 20.7785C5.63924 20.7496 6.08997 20.2829 6.08965 19.703C6.08933 19.1185 5.64076 18.6549 5.04175 18.6368C4.66252 18.6254 4.28227 18.6247 3.9031 18.6377C3.33581 18.6573 2.90903 19.081 2.86785 19.6454C2.82978 20.1668 3.20634 20.6583 3.74167 20.7503C3.98102 20.7914 4.22939 20.7802 4.47363 20.7927" fill="#C8C8C8"/>
</svg>
